# Blender v2.83.20 OBJ File: ''
# www.blender.org
mtllib lv2.mtl
o obj1
v 10.941908 6.693750 -1.440530
v 11.131557 0.000000 0.000000
v 11.131557 6.693750 0.000000
v 10.847084 1.340625 -2.160794
v 10.752259 0.000000 -2.881059
v 10.847084 6.693750 -2.160794
v 10.752259 1.340625 -2.881059
v 10.847491 4.031250 2.157700
v 10.847491 6.693750 2.157700
v 10.752259 0.000000 2.881059
v 10.752259 4.031250 2.881059
v 9.640211 2.390625 5.565779
v 9.640211 4.031250 5.565779
v 9.640211 0.000000 5.565779
v 7.871200 1.340625 7.871200
v 7.871200 2.390625 7.871200
v 7.871200 0.000000 7.871200
v 10.196236 1.340625 -4.223419
v 9.640211 0.000000 -5.565779
v 9.640211 1.340625 -5.565779
v 7.291152 1.340625 10.276142
v 5.565779 1.340625 9.640211
v 5.565779 1.340625 11.188006
v 8.496763 1.340625 9.157522
v 2.881059 1.340625 -10.752259
v -0.000000 0.000000 -11.131557
v 2.881059 0.000000 -10.752259
v -0.000000 1.340625 -11.131557
v 8.755706 1.340625 -6.718489
v 7.871200 0.000000 -7.871200
v 7.871200 1.340625 -7.871200
v 5.565779 0.000000 9.640211
v 2.881059 1.340625 10.752259
v 2.881059 0.000000 10.752259
v 0.000000 1.340625 11.131557
v 0.000000 0.000000 11.131557
v 0.000000 5.503125 11.131557
v 2.881059 5.503125 10.752259
v -2.881059 1.340625 10.752259
v -2.881059 0.000000 10.752259
v -5.565779 1.340625 9.640211
v -5.565779 0.000000 9.640211
v -7.871200 1.340625 7.871200
v -7.871200 0.000000 7.871200
v -9.640211 0.000000 5.565779
v -8.755706 1.340625 6.718489
v -8.755706 5.503125 6.718489
v -9.640211 5.503125 5.565779
v -10.196236 1.340625 4.223419
v -10.752259 0.000000 2.881059
v -10.752259 1.340625 2.881059
v -10.196236 5.503125 4.223419
v -11.131557 0.000000 0.000000
v -11.131557 1.340625 0.000000
v -10.880396 0.000000 -1.907757
v -10.752259 1.340625 -2.881059
v -10.752259 0.000000 -2.881059
v -10.015892 0.000000 -4.658805
v -9.640211 1.340625 -5.565779
v -9.640211 0.000000 -5.565779
v -8.468822 -4.631250 -7.092364
v -8.755605 -3.400255 -6.718620
v -8.755605 -4.631250 -6.718620
v -8.755605 0.000000 -6.718620
v -7.871200 1.340625 -7.871200
v -7.871200 -4.631250 -7.871200
v -5.565779 1.340625 -9.640211
v -6.228953 -4.631250 -9.131340
v -5.565779 -4.631250 -9.640211
v -2.881059 1.340625 -10.752259
v -3.788032 0.000000 -10.376578
v -2.881059 0.000000 -10.752259
v -3.788032 -4.631250 -10.376578
v -1.176252 1.340625 -12.544977
v -2.881059 1.340625 -12.155884
v 2.110707 1.340625 -12.421953
v 5.253824 1.340625 -11.452394
v 5.565779 1.340625 -9.640211
v 8.038902 1.340625 -9.702374
v 10.276142 1.340625 -7.291152
v 2.110707 0.000000 -12.421953
v -1.176252 0.000000 -12.544977
v -4.383051 1.340625 -11.813081
v -4.383051 0.000000 -11.813081
v -7.291152 1.340625 -10.276142
v -4.383051 -4.631250 -11.813081
v -7.291152 -4.631250 -10.276142
v -9.702374 -3.400255 -8.038902
v -9.702374 -4.631250 -8.038902
v -9.702374 0.000000 -8.038902
v -9.702374 1.340625 -8.038902
v -11.452394 1.340625 -5.253824
v -12.421953 0.000000 -2.110707
v -12.421953 1.340625 -2.110707
v -11.452394 0.000000 -5.253824
v -12.544977 0.000000 1.176252
v -12.544977 1.340625 1.176252
v -11.813081 0.000000 4.383051
v -11.813081 1.340625 4.383051
v -11.813081 5.503125 4.383051
v -10.276142 0.000000 7.291152
v -10.276142 5.503125 7.291152
v -9.954203 1.340625 7.638128
v -9.954203 5.503125 7.638128
v -8.038902 0.000000 9.702374
v -8.038902 1.340625 9.702374
v -5.253824 1.340625 11.452394
v -5.253824 0.000000 11.452394
v -2.110707 1.340625 12.421953
v -2.110707 0.000000 12.421953
v 1.176252 0.000000 12.544977
v 0.000000 1.340625 12.500952
v 1.176252 5.503125 12.544977
v 0.000000 5.503125 12.500952
v 4.383051 1.340625 11.813081
v 4.383051 0.000000 11.813081
v 2.881059 1.340625 12.155884
v 2.881059 5.503125 12.155884
v 7.291152 0.000000 10.276142
v 9.702374 2.390625 8.038902
v 9.702374 0.000000 8.038902
v 8.496763 2.390625 9.157522
v 11.452394 0.000000 5.253824
v 10.798893 2.390625 6.293843
v 10.798893 4.031250 6.293843
v 11.452394 4.031250 5.253824
v 12.421953 0.000000 2.110707
v 12.421953 4.031250 2.110707
v 12.544977 0.000000 -1.176252
v 12.421953 6.693750 2.110707
v 12.544977 6.693750 -1.176252
v 12.320272 1.340625 -2.160794
v 11.813081 0.000000 -4.383051
v 11.813081 1.340625 -4.383051
v 12.320272 6.693750 -2.160794
v 8.038902 0.000000 -9.702374
v 10.276142 0.000000 -7.291152
v 6.718489 0.000000 -8.755706
v 5.565779 0.000000 -9.640211
v 5.253824 0.000000 -11.452394
v -10.015892 -4.631250 -4.658805
v -11.452394 -4.631250 -5.253824
v -9.640211 -4.631250 -5.565779
v -11.452394 -3.400255 -5.253824
v -10.015892 -3.400255 -4.658805
v -9.640211 -3.400255 -5.565779
v 10.276142 8.016932 -7.291152
v 9.640211 8.016932 -5.565779
v 8.755706 8.016932 -6.718489
v 10.196236 8.016932 -4.223419
v 11.813081 8.016932 -4.383051
v 9.640211 10.088807 -5.565779
v 10.276142 10.088807 -7.291152
v 8.755706 10.088807 -6.718489
v 10.196236 10.088807 -4.223419
v 11.813081 10.088807 -4.383051
vt 0.294846 0.691016
vt 0.442325 0.722713
vt 0.294846 0.722713
vt 0.412788 0.675168
vt 0.442325 0.659319
vt 0.294846 0.675168
vt 0.412788 0.659319
vt 0.353507 0.770047
vt 0.294846 0.770047
vt 0.442325 0.785916
vt 0.353507 0.785916
vt 0.389654 0.844620
vt 0.353507 0.844620
vt 0.442325 0.844620
vt 0.412788 0.894824
vt 0.389654 0.894824
vt 0.442325 0.894824
vt 0.412788 0.629686
vt 0.442325 0.600054
vt 0.412788 0.600054
vt 0.442325 0.829811
vt 0.473466 0.855656
vt 0.443933 0.872660
vt 0.481823 0.792353
vt 0.450388 0.794581
vt 0.934859 0.658322
vt 0.905322 0.721132
vt 0.905322 0.658322
vt 0.934859 0.721132
vt 0.412788 0.574505
vt 0.442325 0.548956
vt 0.412788 0.548956
vt 0.947158 0.052526
vt 0.976695 0.000000
vt 0.976695 0.052526
vt 0.947158 0.000000
vt 0.947158 0.112657
vt 0.976695 0.112657
vt 0.947158 0.176296
vt 0.976695 0.176296
vt 0.855449 0.176296
vt 0.855449 0.112657
vt 0.947158 0.239105
vt 0.976695 0.239105
vt 0.947158 0.296805
vt 0.976695 0.296805
vt 0.947158 0.345463
vt 0.976695 0.345463
vt 0.170557 0.861030
vt 0.181868 0.918719
vt 0.153942 0.909123
vt 0.190175 0.894671
vt 0.276883 0.924463
vt 0.285191 0.900416
vt 0.208139 0.842676
vt 0.189868 0.805132
vt 0.217795 0.814727
vt 0.294846 0.872467
vt 0.210560 0.745239
vt 0.238486 0.754834
vt 0.224242 0.705638
vt 0.259148 0.695029
vt 0.231222 0.685434
vt 0.243951 0.648589
vt 0.278371 0.639386
vt 0.250445 0.629791
vt 0.164883 0.565066
vt 0.187854 0.581608
vt 0.162212 0.572797
vt 0.258684 0.605944
vt 0.294846 0.591698
vt 0.170448 0.548956
vt 0.934859 0.844902
vt 0.803285 0.860011
vt 0.803285 0.844902
vt 0.803285 0.897428
vt 0.934859 0.897428
vt 0.934859 0.784770
vt 0.905322 0.805084
vt 0.905322 0.784770
vt 0.803285 0.805084
vt 0.581977 0.279525
vt 0.554223 0.326307
vt 0.552225 0.287938
vt 0.591253 0.342700
vt 0.576586 0.395052
vt 0.616608 0.401329
vt 0.616027 0.455682
vt 0.656315 0.451415
vt 0.669861 0.504066
vt 0.707668 0.489546
vt 0.737417 0.501334
vt 0.734416 0.536907
vt 0.682038 0.743995
vt 0.652501 0.815992
vt 0.652501 0.743995
vt 0.682038 0.815992
vt 0.682038 0.672823
vt 0.652501 0.672823
vt 0.550464 0.254133
vt 0.682038 0.607325
vt 0.550464 0.672823
vt 0.550464 0.607325
vt 0.577586 0.551966
vt 0.550464 0.551966
vt 0.652501 0.551966
vt 0.682038 0.551966
vt 0.500737 0.609704
vt 0.530274 0.678515
vt 0.500737 0.678515
vt 0.530274 0.609704
vt 0.530274 0.750700
vt 0.500737 0.750700
vt 0.530274 0.821340
vt 0.500737 0.821340
vt 0.973593 0.345463
vt 0.909136 0.466377
vt 0.909136 0.345463
vt 0.973593 0.466377
vt 0.000000 0.000000
vt 0.000000 0.000000
vt 0.000000 0.000000
vt 0.901411 0.436921
vt 0.901411 0.345463
vt 0.855449 0.466377
vt 0.855449 0.436921
vt 0.773748 0.611170
vt 0.803285 0.551966
vt 0.803285 0.611170
vt 0.773748 0.551966
vt 0.773748 0.679084
vt 0.803285 0.679084
vt 0.803285 0.751081
vt 0.773748 0.725317
vt 0.682038 0.751081
vt 0.682038 0.725317
vt 0.773748 0.822254
vt 0.803285 0.822254
vt 0.773748 0.788918
vt 0.682038 0.788918
vt 0.773748 0.887752
vt 0.803285 0.887752
vt 0.530274 0.621227
vt 0.530274 0.548956
vt 0.530274 0.591835
vt 0.750614 0.943112
vt 0.803285 0.943112
vt 0.773748 0.915432
vt 0.750614 0.915432
vt 0.147479 0.609936
vt 0.094808 0.548956
vt 0.147479 0.548956
vt 0.094808 0.587165
vt 0.058661 0.587165
vt 0.058661 0.609936
vt 0.147479 0.678878
vt 0.058661 0.678878
vt 0.147479 0.751083
vt 0.000000 0.678878
vt 0.000000 0.751083
vt 0.117942 0.772742
vt 0.147479 0.821630
vt 0.117942 0.821630
vt 0.000000 0.772742
vt 0.147479 0.938962
vt 0.117942 0.885712
vt 0.147479 0.885712
vt 0.117942 0.938962
vt 0.934859 0.551966
vt 0.905322 0.576294
vt 0.905322 0.551966
vt 0.905322 0.600623
vt 0.934859 0.600623
vt 0.682038 0.883907
vt 0.652501 0.943112
vt 0.652501 0.883907
vt 0.682038 0.943112
vt 0.760305 0.040677
vt 0.707809 0.026050
vt 0.776743 0.003749
vt 0.647012 0.065384
vt 0.701515 0.065962
vt 0.598495 0.119069
vt 0.651291 0.105560
vt 0.565565 0.183448
vt 0.613056 0.156773
vt 0.589414 0.216109
vt 0.381468 0.530251
vt 0.422372 0.467808
vt 0.444229 0.494115
vt 0.405717 0.481570
vt 0.367184 0.499199
vt 0.531708 0.380423
vt 0.495473 0.443011
vt 0.455018 0.440834
vt 0.106236 0.494115
vt 0.180913 0.498221
vt 0.168996 0.530251
vt 0.160635 0.490718
vt 0.108419 0.453771
vt 0.054992 0.443011
vt 0.067571 0.404606
vt 0.018757 0.380423
vt 0.040875 0.346572
vt 0.000000 0.310614
vt 0.035512 0.315099
vt 0.030150 0.283626
vt 0.036127 0.220056
vt 0.000000 0.238342
vt 0.058398 0.160195
vt 0.018757 0.168533
vt 0.095447 0.108122
vt 0.168997 0.018705
vt 0.106236 0.054841
vt 0.054992 0.105945
vt 0.550464 0.310614
vt 0.492066 0.388761
vt 0.514338 0.328900
vt 0.550464 0.238342
vt 0.520314 0.265330
vt 0.531708 0.168534
vt 0.509589 0.202384
vt 0.482893 0.144350
vt 0.495473 0.105945
vt 0.442045 0.095185
vt 0.444229 0.054841
vt 0.389829 0.058238
vt 0.381468 0.018705
vt 0.329804 0.036028
vt 0.311467 0.000000
vt 0.266059 0.030067
vt 0.238997 0.000000
vt 0.202940 0.040763
vt 0.144747 0.067386
vt 0.953247 0.551966
vt 0.969266 0.621691
vt 0.934859 0.621872
vt 0.970889 0.603396
vt 0.985427 0.563681
vt 0.870760 0.897428
vt 0.839039 0.999186
vt 0.839039 0.897428
vt 0.870760 0.999186
vt 0.968983 0.688242
vt 0.935241 0.694143
vt 0.965248 0.666997
vt 0.985427 0.749444
vt 0.954365 0.763852
vt 0.976305 0.729886
vt 0.970776 0.698438
vt 0.500737 0.548956
vt 0.530274 0.548956
vt 0.411519 0.923243
vt 0.438641 0.983991
vt 0.411519 0.983991
vt 0.438641 0.923243
vt 0.051820 0.938962
vt 0.024698 0.969835
vt 0.024698 0.938962
vt 0.051820 0.969835
vt 0.153973 0.596644
vt 0.173121 0.624252
vt 0.147479 0.615442
vt 0.179615 0.605455
vt 0.147479 0.991012
vt 0.181252 0.924463
vt 0.181252 0.996735
vt 0.151102 0.969747
vt 0.148113 0.937958
vt 0.970673 0.541087
vt 1.000000 0.466377
vt 1.000000 0.541087
vt 0.970673 0.466377
vt 0.311467 0.548956
vt 0.347524 0.508193
vt 0.315961 0.513542
vt 0.849115 0.000000
vt 0.823653 0.031427
vt 0.855449 0.035135
vt 0.449138 0.734360
vt 0.500737 0.777933
vt 0.470758 0.792353
vt 0.486829 0.749179
vt 0.442325 0.662409
vt 0.474886 0.686451
vt 0.479629 0.622777
vt 0.454418 0.591151
vt 0.500736 0.562498
vt 0.473794 0.548956
vt 0.901097 0.476516
vt 0.936416 0.534012
vt 0.903807 0.548737
vt 0.903417 0.466377
vt 0.932238 0.502361
vt 0.936416 0.470710
vt 0.997581 0.950196
vt 0.970199 0.858738
vt 0.997581 0.858738
vt 0.970199 0.950196
vt 0.803285 0.897428
vt 0.839039 0.988886
vt 0.803285 0.988886
vt 0.839039 0.897428
vt 0.185596 0.992239
vt 0.215509 0.924463
vt 0.215509 0.988312
vt 0.181252 0.966742
vt 0.184849 0.928489
vt 0.901685 0.897428
vt 0.870760 0.988886
vt 0.870760 0.897428
vt 0.901685 0.988886
vt 0.901685 0.988886
vt 0.931854 0.897428
vt 0.931854 0.988886
vt 0.901685 0.897428
vt 0.455041 0.934378
vt 0.481823 0.918958
vt 0.445036 0.902032
vt 0.365871 0.927729
vt 0.335721 0.954717
vt 0.330359 0.923243
vt 0.332733 0.986501
vt 0.365871 1.000000
vt 0.300209 0.968527
vt 0.330359 0.995515
vt 0.294846 1.000000
vt 0.297220 0.936742
vt 0.330359 0.923243
vt 0.442325 0.934378
vt 0.476410 0.979901
vt 0.442325 0.979901
vt 0.476410 0.934378
vt 0.901097 0.530459
vt 0.855449 0.466377
vt 0.901097 0.466377
vt 0.855449 0.530459
vt 0.250207 0.924463
vt 0.285960 0.969986
vt 0.250207 0.969986
vt 0.285960 0.924463
vt 0.365871 0.923243
vt 0.411519 0.948792
vt 0.365871 0.948792
vt 0.411519 0.923243
vt 0.411519 0.978425
vt 0.365871 0.978425
vt 0.830758 0.520539
vt 0.805296 0.551966
vt 0.798962 0.516831
vt 0.846595 0.518227
vt 0.855449 0.549368
vt 0.767167 0.513123
vt 0.940780 0.957282
vt 0.966855 0.886942
vt 0.970199 0.950704
vt 0.970199 0.871262
vt 0.934859 0.930948
vt 0.937847 0.858738
vt 0.000000 0.938962
vt 0.024698 0.975010
vt 0.000000 0.975010
vt 0.024698 0.938962
vt 0.500737 0.821340
vt 0.533154 0.938958
vt 0.500737 0.938958
vt 0.533154 0.821340
vt 0.937577 0.857708
vt 0.966003 0.811329
vt 0.972266 0.858738
vt 0.939808 0.763855
vt 0.934859 0.785488
vt 0.970178 0.779678
vt 0.972266 0.763852
vt 0.215509 0.924463
vt 0.250207 0.982963
vt 0.215509 0.982963
vt 0.250207 0.924463
vt 0.942486 0.547088
vt 0.970673 0.469184
vt 0.970673 0.533033
vt 0.936416 0.511463
vt 0.940655 0.466377
vt 0.412788 0.923243
vt 0.389654 0.923243
vn -0.9914 0.0000 0.1305
vn -0.9914 0.0000 -0.1305
vn -0.9239 0.0000 -0.3827
vn -0.7934 0.0000 -0.6088
vn -0.9239 0.0000 0.3827
vn 0.0000 1.0000 0.0000
vn -0.1305 0.0000 0.9914
vn -0.7934 0.0000 0.6088
vn -0.6088 0.0000 -0.7934
vn -0.3827 0.0000 -0.9239
vn -0.1305 0.0000 -0.9914
vn 0.1305 0.0000 -0.9914
vn 0.3827 0.0000 -0.9239
vn 0.6088 0.0000 -0.7934
vn 0.7934 0.0000 -0.6088
vn 0.9239 0.0000 -0.3827
vn 0.9914 0.0000 -0.1305
vn 0.9914 0.0000 0.1305
vn 0.9239 0.0000 0.3827
vn 0.7934 0.0000 0.6088
vn 0.6088 0.0000 0.7934
vn 0.3827 0.0000 0.9239
vn 0.1305 0.0000 0.9914
vn 0.0374 0.0000 -0.9993
vn -0.2225 0.0000 -0.9749
vn 0.0000 0.9762 0.2169
vn -0.4673 0.0000 -0.8841
vn -0.6802 0.0000 -0.7331
vn -0.9556 0.0000 -0.2948
vn -0.9993 0.0000 -0.0374
vn -0.9749 0.0000 0.2225
vn -0.8841 0.0000 0.4673
vn 0.0000 0.0000 1.0000
vn -0.7331 0.0000 0.6802
vn -0.5320 0.0000 0.8467
vn -0.2948 0.0000 0.9556
vn -0.0374 0.0000 0.9993
vn 0.2225 0.0000 0.9749
vn 0.4673 0.0000 0.8841
vn 0.6802 0.0000 0.7331
vn 0.8467 0.0000 0.5320
vn 0.9556 0.0000 0.2948
vn 0.9993 0.0000 0.0374
vn 0.9749 0.0000 -0.2225
vn 0.7331 0.0000 -0.6802
vn -0.6088 0.0000 0.7934
vn 0.8841 0.0000 -0.4673
vn -0.3827 0.0000 0.9239
vn 0.5320 0.0000 -0.8467
vn 0.2948 0.0000 -0.9556
vn 0.0000 -1.0000 0.0000
vn -0.8467 0.0000 -0.5320
vn -0.8127 0.0000 0.5827
vn -0.0983 0.0000 -0.9952
vn 1.0000 0.0000 0.0000
vn -1.0000 0.0000 0.0000
vn -0.3525 0.0000 -0.9358
vn 0.0983 0.0000 0.9952
vn 0.0000 0.0000 -1.0000
vn 0.0298 0.0000 0.9996
vn -0.8993 0.0000 0.4373
usemtl Default_OBJ
s off
f 1/1/1 2/2/1 3/3/1
f 2/2/1 1/1/1 4/4/1
f 2/2/1 4/4/1 5/5/1
f 4/4/1 1/1/1 6/6/1
f 5/5/1 4/4/1 7/7/1
f 3/3/2 8/8/2 9/9/2
f 8/8/2 10/10/2 11/11/2
f 10/10/2 8/8/2 2/2/2
f 2/2/2 8/8/2 3/3/2
f 11/11/3 12/12/3 13/13/3
f 12/12/3 11/11/3 14/14/3
f 14/14/3 11/11/3 10/10/3
f 12/12/4 15/15/4 16/16/4
f 15/15/4 12/12/4 17/17/4
f 17/17/4 12/12/4 14/14/4
f 18/18/5 5/5/5 7/7/5
f 5/5/5 18/18/5 19/19/5
f 19/19/5 18/18/5 20/20/5
f 21/21/6 22/22/6 23/23/6
f 22/22/6 21/21/6 15/24/6
f 15/24/6 21/21/6 24/25/6
f 25/26/7 26/27/7 27/28/7
f 26/27/7 25/26/7 28/29/7
f 29/30/8 19/19/8 20/20/8
f 19/19/8 29/30/8 30/31/8
f 30/31/8 29/30/8 31/32/8
f 22/33/9 17/34/9 32/35/9
f 17/34/9 22/33/9 15/36/9
f 33/37/10 32/35/10 34/38/10
f 32/35/10 33/37/10 22/33/10
f 35/39/11 34/38/11 36/40/11
f 34/38/11 35/39/11 33/37/11
f 33/37/11 35/39/11 37/41/11
f 33/37/11 37/41/11 38/42/11
f 39/43/12 36/40/12 40/44/12
f 36/40/12 39/43/12 35/39/12
f 41/45/13 40/44/13 42/46/13
f 40/44/13 41/45/13 39/43/13
f 43/47/14 42/46/14 44/48/14
f 42/46/14 43/47/14 41/45/14
f 45/49/15 43/50/15 44/51/15
f 43/50/15 45/49/15 46/52/15
f 46/52/15 45/49/15 47/53/15
f 47/53/15 45/49/15 48/54/15
f 45/49/16 49/55/16 48/54/16
f 49/55/16 45/49/16 50/56/16
f 49/55/16 50/56/16 51/57/16
f 52/58/16 48/54/16 49/55/16
f 53/59/17 51/57/17 50/56/17
f 51/57/17 53/59/17 54/60/17
f 55/61/18 54/60/18 53/59/18
f 54/60/18 55/61/18 56/62/18
f 56/62/18 55/61/18 57/63/18
f 58/64/19 56/62/19 57/63/19
f 56/62/19 58/64/19 59/65/19
f 59/65/19 58/64/19 60/66/19
f 61/67/20 62/68/20 63/69/20
f 62/68/20 61/67/20 64/70/20
f 64/70/20 59/65/20 60/66/20
f 59/65/20 64/70/20 65/71/20
f 65/71/20 64/70/20 61/67/20
f 65/71/20 61/67/20 66/72/20
f 67/73/21 68/74/21 69/75/21
f 68/74/21 67/73/21 66/76/21
f 66/76/21 67/73/21 65/77/21
f 70/78/22 71/79/22 72/80/22
f 71/79/22 69/75/22 73/81/22
f 69/75/22 71/79/22 67/73/22
f 67/73/22 71/79/22 70/78/22
f 28/29/23 72/80/23 26/27/23
f 72/80/23 28/29/23 70/78/23
f 70/82/6 74/83/6 75/84/6
f 74/83/6 70/82/6 28/85/6
f 74/83/6 28/85/6 76/86/6
f 76/86/6 28/85/6 25/87/6
f 76/86/6 25/87/6 77/88/6
f 77/88/6 25/87/6 78/89/6
f 77/88/6 78/89/6 79/90/6
f 79/90/6 78/89/6 31/91/6
f 79/90/6 31/91/6 29/92/6
f 79/90/6 29/92/6 80/93/6
f 74/94/24 81/95/24 82/96/24
f 81/95/24 74/94/24 76/97/24
f 83/98/25 82/96/25 84/99/25
f 82/96/25 83/98/25 74/94/25
f 74/83/26 83/100/26 75/84/26
f 85/101/27 86/102/27 87/103/27
f 86/102/27 85/101/27 84/99/27
f 84/99/27 85/101/27 83/98/27
f 88/104/28 87/103/28 89/105/28
f 87/103/28 88/104/28 85/101/28
f 85/101/28 88/104/28 90/106/28
f 85/101/28 90/106/28 91/107/28
f 92/108/29 93/109/29 94/110/29
f 93/109/29 92/108/29 95/111/29
f 94/110/30 96/112/30 97/113/30
f 96/112/30 94/110/30 93/109/30
f 97/113/31 98/114/31 99/115/31
f 98/114/31 97/113/31 96/112/31
f 100/116/32 101/117/32 102/118/32
f 101/117/32 100/116/32 98/119/32
f 98/120/33 100/121/33 99/122/33
f 102/118/34 103/123/34 104/124/34
f 103/123/34 105/125/34 106/126/34
f 105/125/34 103/123/34 101/117/34
f 101/117/34 103/123/34 102/118/34
f 107/127/35 105/128/35 108/129/35
f 105/128/35 107/127/35 106/130/35
f 109/131/36 108/129/36 110/132/36
f 108/129/36 109/131/36 107/127/36
f 111/133/37 112/134/37 110/132/37
f 112/134/37 111/133/37 113/135/37
f 112/134/37 113/135/37 114/136/37
f 109/131/37 110/132/37 112/134/37
f 115/137/38 111/133/38 116/138/38
f 111/133/38 115/137/38 117/139/38
f 111/133/38 117/139/38 113/135/38
f 113/135/38 117/139/38 118/140/38
f 21/141/39 116/138/39 119/142/39
f 116/138/39 21/141/39 115/137/39
f 115/143/33 21/144/33 23/145/33
f 120/146/40 119/142/40 121/147/40
f 119/142/40 120/146/40 24/148/40
f 24/148/40 120/146/40 122/149/40
f 21/141/40 119/142/40 24/148/40
f 123/150/41 120/151/41 121/152/41
f 120/151/41 123/150/41 124/153/41
f 124/153/41 123/150/41 125/154/41
f 125/154/41 123/150/41 126/155/41
f 127/156/42 126/155/42 123/150/42
f 126/155/42 127/156/42 128/157/42
f 129/158/43 128/157/43 127/156/43
f 128/157/43 129/158/43 130/159/43
f 130/159/43 129/158/43 131/160/43
f 129/158/44 132/161/44 131/160/44
f 132/161/44 129/158/44 133/162/44
f 132/161/44 133/162/44 134/163/44
f 135/164/44 131/160/44 132/161/44
f 136/165/45 80/166/45 137/167/45
f 80/166/45 136/165/45 79/168/45
f 31/169/46 138/170/46 30/171/46
f 138/170/46 31/169/46 139/172/46
f 139/172/46 31/169/46 78/173/46
f 137/167/47 134/163/47 133/162/47
f 134/163/47 137/167/47 80/166/47
f 78/173/48 27/28/48 139/172/48
f 27/28/48 78/173/48 25/26/48
f 77/174/49 136/175/49 140/176/49
f 136/175/49 77/174/49 79/177/49
f 76/97/50 140/176/50 81/95/50
f 140/176/50 76/97/50 77/174/50
f 54/178/6 94/179/6 97/180/6
f 94/179/6 54/178/6 92/181/6
f 92/181/6 54/178/6 56/182/6
f 92/181/6 56/182/6 91/183/6
f 91/183/6 56/182/6 59/184/6
f 91/183/6 59/184/6 85/185/6
f 85/185/6 59/184/6 65/186/6
f 85/185/6 65/186/6 67/187/6
f 85/185/6 67/187/6 83/100/6
f 83/100/6 67/187/6 70/82/6
f 83/100/6 70/82/6 75/84/6
f 95/188/51 55/189/51 93/190/51
f 55/189/51 95/188/51 57/191/51
f 57/191/51 95/188/51 58/192/51
f 93/190/51 98/193/51 96/194/51
f 98/193/51 93/190/51 55/189/51
f 98/193/51 55/189/51 53/195/51
f 82/196/51 71/197/51 84/198/51
f 71/197/51 82/196/51 72/199/51
f 72/199/51 82/196/51 26/200/51
f 26/200/51 82/196/51 81/201/51
f 26/200/51 81/201/51 27/202/51
f 27/202/51 81/201/51 140/203/51
f 27/202/51 140/203/51 139/204/51
f 139/204/51 140/203/51 136/205/51
f 139/204/51 136/205/51 138/206/51
f 138/206/51 136/205/51 30/207/51
f 30/207/51 136/205/51 19/208/51
f 19/208/51 136/205/51 137/209/51
f 19/208/51 137/209/51 5/210/51
f 5/210/51 137/209/51 133/211/51
f 5/210/51 133/211/51 2/212/51
f 2/212/51 133/211/51 123/213/51
f 123/213/51 133/211/51 127/214/51
f 127/214/51 133/211/51 129/215/51
f 53/195/51 101/216/51 98/193/51
f 101/216/51 53/195/51 50/217/51
f 101/216/51 50/217/51 45/218/51
f 101/216/51 45/218/51 105/219/51
f 105/219/51 45/218/51 44/220/51
f 105/219/51 44/220/51 108/221/51
f 108/221/51 44/220/51 42/222/51
f 108/221/51 42/222/51 40/223/51
f 108/221/51 40/223/51 110/224/51
f 110/224/51 40/223/51 36/225/51
f 110/224/51 36/225/51 111/226/51
f 111/226/51 36/225/51 34/227/51
f 111/226/51 34/227/51 116/228/51
f 116/228/51 34/227/51 32/229/51
f 116/228/51 32/229/51 119/230/51
f 119/230/51 32/229/51 17/231/51
f 119/230/51 17/231/51 121/232/51
f 121/232/51 17/231/51 14/233/51
f 121/232/51 14/233/51 10/234/51
f 121/232/51 10/234/51 123/213/51
f 123/213/51 10/234/51 2/212/51
f 86/235/51 68/236/51 87/237/51
f 68/236/51 86/235/51 69/238/51
f 69/238/51 86/235/51 73/239/51
f 86/240/16 71/241/16 73/242/16
f 71/241/16 86/240/16 84/243/16
f 87/237/51 61/244/51 89/245/51
f 61/244/51 87/237/51 66/246/51
f 66/246/51 87/237/51 68/236/51
f 89/245/51 141/247/51 142/248/51
f 141/247/51 89/245/51 143/249/51
f 143/249/51 89/245/51 63/250/51
f 63/250/51 89/245/51 61/244/51
f 91/251/52 95/111/52 92/108/52
f 95/111/52 91/251/52 90/252/52
f 88/253/52 142/254/52 144/255/52
f 142/254/52 88/253/52 89/256/52
f 145/257/48 142/258/48 141/259/48
f 142/258/48 145/257/48 144/260/48
f 143/261/19 145/262/19 141/263/19
f 145/262/19 143/261/19 146/264/19
f 145/265/6 88/266/6 144/267/6
f 88/266/6 145/265/6 146/268/6
f 88/266/6 146/268/6 62/269/6
f 63/69/20 146/264/20 143/261/20
f 146/264/20 63/69/20 62/68/20
f 90/270/53 62/271/53 64/272/53
f 62/271/53 90/270/53 88/273/53
f 90/274/51 58/192/51 95/188/51
f 58/192/51 90/274/51 60/275/51
f 60/275/51 90/274/51 64/276/51
f 99/277/6 54/178/6 97/180/6
f 54/178/6 99/277/6 51/278/6
f 51/278/6 99/277/6 49/279/6
f 106/280/6 46/281/6 103/282/6
f 46/281/6 106/280/6 43/283/6
f 43/283/6 106/280/6 107/284/6
f 43/283/6 107/284/6 41/285/6
f 41/285/6 107/284/6 39/286/6
f 39/286/6 107/284/6 109/287/6
f 39/286/6 109/287/6 35/288/6
f 35/288/6 109/287/6 112/289/6
f 102/290/6 52/291/6 100/292/6
f 52/291/6 102/290/6 104/293/6
f 52/291/6 104/293/6 48/294/6
f 48/294/6 104/293/6 47/295/6
f 47/296/21 103/297/21 46/298/21
f 103/297/21 47/296/21 104/299/21
f 100/300/54 49/301/54 99/302/54
f 49/301/54 100/300/54 52/303/54
f 114/304/6 38/305/6 37/306/6
f 38/305/6 114/304/6 113/307/6
f 38/305/6 113/307/6 118/308/6
f 33/309/55 118/310/55 117/311/55
f 118/310/55 33/309/55 38/312/55
f 37/313/56 112/314/56 114/315/56
f 112/314/56 37/313/56 35/316/56
f 117/317/6 22/22/6 33/318/6
f 22/22/6 117/317/6 115/319/6
f 22/22/6 115/319/6 23/23/6
f 147/320/51 148/321/51 149/322/51
f 148/321/51 147/320/51 150/323/51
f 150/323/51 147/320/51 151/324/51
f 152/325/6 153/326/6 154/327/6
f 153/326/6 152/325/6 155/328/6
f 153/326/6 155/328/6 156/329/6
f 154/330/57 147/331/57 149/332/57
f 147/331/57 154/330/57 153/333/57
f 147/334/47 156/335/47 151/336/47
f 156/335/47 147/334/47 153/337/47
f 156/338/58 150/339/58 151/340/58
f 150/339/58 156/338/58 155/341/58
f 154/342/8 148/343/8 152/344/8
f 148/343/8 154/342/8 149/345/8
f 152/344/5 150/346/5 155/347/5
f 150/346/5 152/344/5 148/343/5
f 7/348/6 134/349/6 18/350/6
f 134/349/6 7/348/6 4/351/6
f 134/349/6 4/351/6 132/352/6
f 20/353/6 80/93/6 29/92/6
f 80/93/6 20/353/6 18/350/6
f 80/93/6 18/350/6 134/349/6
f 125/354/6 11/355/6 13/356/6
f 11/355/6 125/354/6 8/357/6
f 8/357/6 125/354/6 126/358/6
f 8/357/6 126/358/6 128/359/6
f 125/360/35 12/361/35 124/362/35
f 12/361/35 125/360/35 13/363/35
f 6/364/59 132/365/59 4/366/59
f 132/365/59 6/364/59 135/367/59
f 130/368/6 3/369/6 9/370/6
f 3/369/6 130/368/6 135/371/6
f 135/371/6 130/368/6 131/372/6
f 1/373/6 135/371/6 6/374/6
f 135/371/6 1/373/6 3/369/6
f 130/375/60 8/376/60 128/377/60
f 8/376/60 130/375/60 9/378/60
f 122/379/6 12/380/6 16/381/6
f 12/380/6 122/379/6 120/382/6
f 12/380/6 120/382/6 124/383/6
f 16/16/61 24/384/61 122/385/61
f 24/384/61 16/16/61 15/15/61
